<svg xmlns="http://www.w3.org/2000/svg" width="1200" height="320" viewBox="0 0 1200 320" role="img" aria-labelledby="title description">
  <title id="title">Claude Skills Library</title>
  <desc id="description">Three original geometric skill mascots represent building, designing, and connecting agent workflows.</desc>
  <defs>
    <linearGradient id="background" x2="1" y2="1">
      <stop stop-color="#111827"/>
      <stop offset="1" stop-color="#101e2d"/>
    </linearGradient>
    <linearGradient id="accent" x2="1">
      <stop stop-color="#6ee7b7"/>
      <stop offset="1" stop-color="#67e8f9"/>
    </linearGradient>
  </defs>
  <rect width="1200" height="320" rx="24" fill="url(#background)"/>
  <rect x="26" y="26" width="1148" height="268" rx="18" fill="none" stroke="#334155"/>
  <path d="M58 64h32" stroke="#6ee7b7" stroke-width="4" stroke-linecap="round"/>
  <text x="58" y="117" fill="#f8fafc" font-family="Arial,Helvetica,sans-serif" font-size="43" font-weight="700">Skills for better agents</text>
  <text x="58" y="154" fill="#cbd5e1" font-family="Arial,Helvetica,sans-serif" font-size="20">Design, connect, build, review. One focused skill at a time.</text>
  <rect x="58" y="197" width="122" height="38" rx="19" fill="#164e43" stroke="#34d399"/>
  <text x="119" y="222" text-anchor="middle" fill="#d1fae5" font-family="Arial,Helvetica,sans-serif" font-size="16" font-weight="700">115 skills</text>
  <text x="196" y="222" fill="#94a3b8" font-family="Arial,Helvetica,sans-serif" font-size="15">Open format · FrankX catalog</text>
  <g transform="translate(690 67)">
    <rect width="138" height="170" rx="20" fill="#1e293b" stroke="#475569"/>
    <rect x="24" y="24" width="90" height="80" rx="19" fill="#064e3b" stroke="#6ee7b7" stroke-width="3"/>
    <rect x="45" y="51" width="15" height="15" rx="4" fill="#a7f3d0"/>
    <rect x="78" y="51" width="15" height="15" rx="4" fill="#a7f3d0"/>
    <path d="M50 82h38" stroke="#a7f3d0" stroke-width="4" stroke-linecap="round"/>
    <text x="69" y="140" text-anchor="middle" fill="#f1f5f9" font-family="Arial,Helvetica,sans-serif" font-size="16">Build</text>
  </g>
  <g transform="translate(846 67)">
    <rect width="138" height="170" rx="20" fill="#1e293b" stroke="#475569"/>
    <path d="M69 23 113 63 69 107 25 63Z" fill="#1e3a5f" stroke="#7dd3fc" stroke-width="3"/>
    <circle cx="55" cy="57" r="6" fill="#bae6fd"/>
    <circle cx="83" cy="57" r="6" fill="#bae6fd"/>
    <path d="M55 79q14 10 28 0" fill="none" stroke="#bae6fd" stroke-width="4" stroke-linecap="round"/>
    <text x="69" y="140" text-anchor="middle" fill="#f1f5f9" font-family="Arial,Helvetica,sans-serif" font-size="16">Design</text>
  </g>
  <g transform="translate(1002 67)">
    <rect width="138" height="170" rx="20" fill="#1e293b" stroke="#475569"/>
    <circle cx="69" cy="64" r="40" fill="#312e81" stroke="#a5b4fc" stroke-width="3"/>
    <circle cx="55" cy="57" r="6" fill="#c7d2fe"/>
    <circle cx="83" cy="57" r="6" fill="#c7d2fe"/>
    <path d="M53 79h32" stroke="#c7d2fe" stroke-width="4" stroke-linecap="round"/>
    <circle cx="23" cy="64" r="5" fill="#a5b4fc"/>
    <circle cx="115" cy="64" r="5" fill="#a5b4fc"/>
    <text x="69" y="140" text-anchor="middle" fill="#f1f5f9" font-family="Arial,Helvetica,sans-serif" font-size="16">Connect</text>
  </g>
</svg>
